<svg width="2116" height="1289" viewBox="0 0 2116 1289" fill="none" xmlns="http://www.w3.org/2000/svg">
<path d="M176.718 1018.21C145.803 958.984 128.206 916.657 104.813 857.429H101.501C106.538 920.918 109.022 963.244 109.022 1026.66V1276.29H0.336914V683.934H121.582L235.305 909.044C266.22 969.949 284.645 1009.76 309.694 1068.99C334.812 1009.76 353.168 969.949 384.083 909.044L497.806 683.934H619.051V1276.36H510.365V1026.73C510.365 963.244 512.85 920.918 517.887 857.499H514.575C491.182 916.727 473.585 959.053 442.67 1018.28L309.694 1276.43L176.718 1018.28V1018.21Z" fill="black"/>
<path d="M1148.26 1149.38C1124.04 1225.51 1052.96 1289 940.069 1289C801.297 1289 714.279 1187.45 714.279 1056.28C714.279 925.107 803.712 823.553 937.516 823.553C1047.86 823.553 1114.79 882.781 1142.4 970.786C1152.4 1002.91 1156.61 1040.21 1156.61 1077.44V1094.34H822.137C825.449 1149.38 864.783 1208.61 940 1208.61C996.862 1208.61 1026.12 1176.48 1036.13 1149.38H1148.19H1148.26ZM822.206 1013.95H1048.82C1046.34 954.722 1007.01 903.944 937.585 903.944C868.164 903.944 828.899 954.722 822.206 1013.95Z" fill="black"/>
<path d="M1589.84 1191.71V1276.36H1205.19V1191.71L1448.51 920.916H1213.54V836.264H1581.42V920.916L1338.1 1191.71H1589.77H1589.84Z" fill="black"/>
<path d="M1869.11 1289C1731.16 1289 1641.66 1187.45 1641.66 1056.28C1641.66 925.107 1731.16 823.553 1869.11 823.553C2007.05 823.553 2096.55 925.107 2096.55 1056.28C2096.55 1187.45 2007.12 1289 1869.11 1289ZM1869.11 1204.42C1956.88 1204.42 1992.84 1128.29 1992.84 1056.35C1992.84 984.406 1956.88 908.275 1869.11 908.275C1781.33 908.275 1745.38 984.476 1745.38 1056.35C1745.38 1128.22 1781.33 1204.42 1869.11 1204.42Z" fill="black"/>
<path d="M501.846 505.187L708.392 296.158V295.229L913.955 504.258C973.361 564.379 1046.01 591.121 1117.68 591.121C1267.64 591.121 1411.89 472.804 1411.89 295.229L1617.46 504.258C1676.86 564.379 1749.52 591.121 1821.18 591.121C1971.14 591.121 2115.4 472.804 2115.4 295.229H1939.01L1733.45 87.1952C1674.04 27.0745 1600.47 0.332031 1528.81 0.332031C1378.85 0.332031 1235.51 117.72 1235.51 295.229L1029.95 87.1952C970.542 27.0745 896.972 0.332031 825.304 0.332031C675.345 0.332031 532.008 117.72 532.008 295.229L3.90625 296.158C3.90625 474.662 150.062 590.126 300.021 590.126C371.689 590.126 444.341 563.383 501.846 505.187Z" fill="#FF004D"/>
</svg>
